<svg data-v-70b83f88="" version="1.0" xmlns="http://www.w3.org/2000/svg" xmlns:xlink="http://www.w3.org/1999/xlink" width="100%" height="100%" viewBox="87 106 165 37" preserveAspectRatio="xMidYMid meet" color-interpolation-filters="sRGB" style="margin: auto;"> <rect data-v-70b83f88="" x="0" y="0" width="100%" height="100%" fill="#fefbf8" fill-opacity="0" class="background"></rect> <rect data-v-70b83f88="" x="0" y="0" width="100%" height="100%" fill-opacity="0"></rect> <g data-v-70b83f88="" fill="#333333" class="newinitialsvg-g newinitialsvg" transform="translate(89.08200894598849,99.67317008972168)"><g class="tp-name" opacity="1"><g transform="translate(0, 5.550350400000003)"><g data-gra="path-name" fill="#333333" transform="translate(0,3)"><g transform="scale(0.8199999999999998)"><path d="M23.21-9.38C21.83-7.29 19.53-5.97 16.98-5.97C12.50-5.97 8.82-9.54 8.82-13.87C8.82-18.26 12.50-21.83 16.98-21.83C19.53-21.83 21.83-20.50 23.21-18.46L27.80-22.70C25.30-26.06 21.42-28.20 16.98-28.20C8.62-28.20 1.84-21.83 1.84-13.87C1.84-5.97 8.62 0.41 16.98 0.41C21.27 0.41 25.19-1.73 27.69-5.15Z" transform="translate(-1.836, 38.454)"></path></g></g></g><g transform="translate(23.286379999999998, 5.550350400000003)"><g data-gra="path-name" fill="#333333" transform="translate(0,3)"><g transform="scale(0.8199999999999998)"><path d="M16.93-28.20C8.57-28.20 1.79-21.83 1.79-13.87C1.79-5.97 8.57 0.41 16.93 0.41C25.30 0.41 32.08-5.97 32.08-13.87C32.08-21.83 25.30-28.20 16.93-28.20ZM16.93-5.97C12.44-5.97 8.77-9.54 8.77-13.87C8.77-18.26 12.44-21.83 16.93-21.83C21.47-21.83 25.09-18.26 25.09-13.87C25.09-9.54 21.47-5.97 16.93-5.97Z" transform="translate(-1.7850000000000001, 38.454)"></path></g></g></g><g transform="translate(50.12745999999999, 5.550350400000003)"><g data-gra="path-name" fill="#333333" transform="translate(0,3)"><g transform="scale(0.8199999999999998)"><path d="M24.02-38.45L24.02-26.11C21.73-27.39 18.92-28.20 15.96-28.20C8.26-28.20 1.94-22.54 1.94-13.87C1.94-5.36 8.26 0.46 15.96 0.46C18.87 0.46 21.78-0.36 24.02-1.68L24.02 0L31.16 0L31.16-38.45ZM17.24-5.97C12.50-5.97 8.98-9.18 8.98-13.87C8.98-18.41 12.50-21.83 17.24-21.83C19.94-21.83 22.34-20.91 24.02-19.48L24.02-8.36C22.34-6.89 19.89-5.97 17.24-5.97Z" transform="translate(-1.9380000000000002, 38.454)"></path></g></g></g><g transform="translate(76.09031999999999, 5.550350400000003)"><g data-gra="path-name" fill="#333333" transform="translate(0,3)"><g transform="scale(0.8199999999999998)"><path d="M29.48-11.83C29.48-12.29 29.53-12.85 29.53-13.41C29.53-22.03 24.58-28.20 16.07-28.20C7.70-28.20 1.89-21.83 1.89-13.87C1.89-5.97 7.70 0.41 16.07 0.41C21.47 0.41 26.01-1.84 28.56-5.30L24.02-9.08C22.49-6.99 19.79-5.66 16.88-5.66C12.65-5.66 9.74-8.21 8.98-11.83ZM16.07-22.54C20.81-22.54 22.49-19.53 22.75-16.37L9.03-16.37C9.69-19.79 12.34-22.54 16.07-22.54Z" transform="translate(-1.8870000000000002, 38.454)"></path></g></g></g><g transform="translate(100.75675999999999, 5.550350400000003)"><g data-gra="path-name" fill="#333333" transform="translate(0,3)"><g transform="scale(0.8199999999999998)"><path d="M23.92-27.69L23.92-25.96C21.57-27.34 18.72-28.25 15.81-28.25C7.14-28.25 2.04-21.32 2.04-13.92C2.04-6.58 7.14 0.41 15.81 0.41C18.87 0.41 21.62-0.51 23.92-2.04L23.92 0L31.01 0L31.01-27.69ZM23.92-8.31C22.19-6.83 19.79-5.97 17.09-5.97C12.09-5.97 8.87-9.74 8.87-13.92C8.87-18.05 12.04-21.83 17.09-21.83C19.74-21.83 22.19-20.91 23.92-19.43Z" transform="translate(-2.04, 38.454)"></path></g></g></g><g class="tp-graph" transform="translate(126.51051999999999, 0)"><rect data-gra="graph-name" fill="none" x="0" y="11.408278465270996" width="17.890596" height="0"></rect> <g data-gra="path-name" transform="translate(-0.0025407832641608508,3)"><g transform="scale(-1.0168, 1.0168) translate(-17.599998474121094, 0)" fill="#ed1c24"><path d="M10.35-27.69L3.21-27.69L3.21 0L10.35 0L10.35-13.36C10.35-16.98 12.29-20.60 17.39-20.60C18.87-20.60 20.81-20.20 20.81-20.20L20.81-27.90C20.25-28.10 19.58-28.20 19.07-28.20C15.15-28.15 12.24-26.42 10.35-23.82Z" transform="translate(-3.213, 38.454)"></path></g></g></g><g transform="translate(146.40111599999997, 5.550350400000003)"><g data-gra="path-name" fill="#333333" transform="translate(0,3)"><g transform="scale(0.8199999999999998)"><path d="M19.89-21.83L19.89-27.69L12.14-27.69L12.14-38.45L5.00-38.45L5.00-27.69L1.07-27.69L1.07-21.83L5.00-21.83L5.00-8.31C5.00-2.50 8.72 0.41 13.36 0.41C17.34 0.41 19.48-0.51 19.79-0.61L19.79-5.92C18.82-5.81 17.75-5.66 16.52-5.66C12.95-5.66 12.14-7.09 12.14-12.04L12.14-21.83Z" transform="translate(-1.0710000000000002, 38.454)"></path></g></g></g></g> <!----></g><defs v-gra="od"></defs></svg>